<svg xmlns="http://www.w3.org/2000/svg" viewBox="0 0 1440 320"><path fill="#09f" fill-opacity="1" d="M0,192L18.5,165.3C36.9,139,74,85,111,90.7C147.7,96,185,160,222,160C258.5,160,295,96,332,69.3C369.2,43,406,53,443,90.7C480,128,517,192,554,192C590.8,192,628,128,665,133.3C701.5,139,738,213,775,224C812.3,235,849,181,886,144C923.1,107,960,85,997,96C1033.8,107,1071,149,1108,170.7C1144.6,192,1182,192,1218,186.7C1255.4,181,1292,171,1329,149.3C1366.2,128,1403,96,1422,80L1440,64L1440,0L1421.5,0C1403.1,0,1366,0,1329,0C1292.3,0,1255,0,1218,0C1181.5,0,1145,0,1108,0C1070.8,0,1034,0,997,0C960,0,923,0,886,0C849.2,0,812,0,775,0C738.5,0,702,0,665,0C627.7,0,591,0,554,0C516.9,0,480,0,443,0C406.2,0,369,0,332,0C295.4,0,258,0,222,0C184.6,0,148,0,111,0C73.8,0,37,0,18,0L0,0Z"/></svg>